<?xml version="1.0" standalone="no"?>
<!DOCTYPE svg PUBLIC "-//W3C//DTD SVG 20010904//EN"
 "http://www.w3.org/TR/2001/REC-SVG-20010904/DTD/svg10.dtd">
<svg version="1.0" xmlns="http://www.w3.org/2000/svg"
 width="692.000000pt" height="257.000000pt" viewBox="0 0 692.000000 257.000000"
 preserveAspectRatio="xMidYMid meet">

<g transform="translate(0.000000,257.000000) scale(0.100000,-0.100000)"
fill="#000000" stroke="none">
<path d="M236 2475 c-48 -17 -89 -55 -111 -106 -18 -38 -17 -70 18 -969 40
-1034 35 -981 110 -1047 72 -63 12 -64 1222 31 826 66 1108 91 1132 103 35 16
68 62 83 114 13 43 -35 1346 -51 1399 -16 52 -62 106 -102 119 -35 11 -2216
371 -2244 371 -10 -1 -35 -7 -57 -15z m1221 -295 c583 -87 1067 -162 1076
-166 9 -3 19 -20 21 -37 12 -73 49 -1388 40 -1397 -6 -6 -491 -33 -1083 -61
-1013 -48 -1074 -50 -1092 -33 -10 9 -21 31 -24 48 -9 62 -68 1752 -62 1779 6
21 13 27 36 27 15 0 505 -72 1088 -160z"/>
<path d="M665 2095 c-67 -70 -66 -68 -45 -623 11 -273 24 -521 30 -551 12 -66
46 -112 103 -140 44 -22 46 -22 853 -19 742 3 812 4 840 20 45 24 82 72 90
115 9 50 -24 857 -37 891 -20 53 -82 103 -153 123 -37 11 -1576 219 -1619 219
-21 0 -39 -10 -62 -35z"/>
<path d="M5766 1994 c-11 -28 -6 -140 6 -152 7 -7 30 -12 53 -12 23 0 46 5 53
12 12 12 17 124 6 152 -9 23 -109 23 -118 0z"/>
<path d="M4390 1545 l0 -455 65 0 65 0 0 220 0 220 33 20 c17 11 49 25 69 32
33 10 41 9 58 -7 19 -17 20 -31 20 -252 l0 -233 65 0 65 0 0 275 c0 296 -4
326 -51 359 -30 21 -110 21 -150 0 -17 -8 -48 -31 -70 -51 l-39 -35 0 181 0
181 -65 0 -65 0 0 -455z"/>
<path d="M2950 1905 l0 -75 95 0 95 0 0 -370 0 -370 70 0 70 0 0 370 0 370 95
0 95 0 0 75 0 75 -260 0 -260 0 0 -75z"/>
<path d="M4960 1961 c-5 -11 -14 -169 -20 -368 -6 -191 -11 -383 -13 -425 l-2
-78 62 0 63 0 0 43 c1 179 22 693 29 700 10 10 13 -4 71 -323 49 -269 54 -286
83 -294 34 -9 106 -7 127 4 22 12 19 0 80 331 28 150 54 277 59 282 16 16 19
-26 26 -358 3 -181 8 -342 11 -357 5 -27 8 -28 65 -28 l59 0 -1 53 c0 28 -6
221 -12 428 -9 289 -15 380 -26 393 -20 24 -182 23 -203 -1 -13 -15 -79 -352
-113 -580 -9 -60 -21 -54 -30 15 -12 102 -95 544 -106 563 -8 17 -22 19 -104
19 -83 0 -96 -2 -105 -19z"/>
<path d="M3535 1720 c-86 -42 -122 -153 -112 -346 8 -164 35 -228 115 -272 35
-20 57 -24 125 -23 90 0 165 18 180 42 6 9 7 36 3 63 l-7 47 -98 -7 c-68 -5
-104 -3 -120 5 -27 15 -61 68 -61 97 0 20 6 21 110 26 124 6 153 18 176 73 33
79 10 232 -42 276 -51 43 -199 54 -269 19z m178 -123 c22 -16 32 -74 18 -109
-10 -27 -12 -28 -92 -28 l-81 0 4 57 c4 43 10 61 28 75 26 21 97 24 123 5z"/>
<path d="M4044 1726 c-46 -21 -83 -65 -100 -121 -21 -71 -28 -216 -15 -310 23
-163 80 -218 229 -217 49 1 95 7 120 18 45 17 50 32 36 103 l-6 31 -87 -3
c-103 -2 -134 12 -150 70 -14 50 -14 181 0 224 19 59 40 69 140 69 l88 0 6 38
c13 80 13 80 -14 93 -39 19 -209 22 -247 5z"/>
<path d="M5760 1410 l0 -320 65 0 65 0 0 320 0 320 -65 0 -65 0 0 -320z"/>
<path d="M5960 1726 c0 -3 27 -69 61 -148 33 -79 61 -150 61 -158 1 -8 -29
-84 -65 -168 -37 -84 -67 -155 -67 -158 0 -3 30 -4 66 -2 l66 3 52 130 c29 72
56 129 61 128 5 0 34 -60 63 -132 l54 -131 64 0 c35 0 64 2 64 5 0 2 -30 73
-67 157 -36 84 -66 160 -65 168 0 8 28 79 61 158 34 79 61 145 61 148 0 2 -29
4 -64 4 l-64 0 -49 -122 c-27 -68 -53 -123 -58 -123 -5 0 -31 55 -58 123 l-49
122 -64 0 c-35 0 -64 -2 -64 -4z"/>
<path d="M1608 335 c-384 -46 -703 -85 -708 -87 -6 -2 102 -36 240 -77 l251
-73 102 4 c84 4 169 21 482 97 391 94 412 102 399 145 -16 58 -27 76 -48 75
-11 -1 -335 -38 -718 -84z"/>
<path d="M5841 386 c-14 -14 -22 -28 -20 -30 8 -9 52 31 48 43 -3 8 -13 3 -28
-13z"/>
<path d="M3220 292 c0 -71 4 -112 12 -120 15 -15 48 -16 48 -2 0 6 -6 10 -14
10 -21 0 -26 23 -26 126 0 56 -4 94 -10 94 -6 0 -10 -43 -10 -108z"/>
<path d="M4337 382 c-25 -27 -21 -35 8 -16 25 16 33 34 17 34 -5 0 -16 -8 -25
-18z"/>
<path d="M5012 283 l3 -118 30 -3 30 -2 -22 16 c-21 15 -23 24 -23 120 0 65
-4 104 -10 104 -7 0 -10 -42 -8 -117z"/>
<path d="M2700 275 l0 -115 51 0 c28 0 59 5 69 10 41 22 50 161 13 203 -12 12
-32 17 -75 17 l-58 0 0 -115z m118 82 c7 -6 12 -35 12 -78 0 -79 -13 -99 -66
-99 l-34 0 0 94 c0 90 1 95 23 98 25 4 46 -1 65 -15z"/>
<path d="M6300 375 c0 -8 5 -15 10 -15 6 0 10 7 10 15 0 8 -4 15 -10 15 -5 0
-10 -7 -10 -15z"/>
<path d="M3640 345 c0 -17 -6 -25 -17 -25 -17 -1 -17 -1 0 -11 13 -8 17 -23
17 -67 0 -70 9 -85 46 -80 l29 4 -28 12 c-27 11 -28 15 -25 69 3 51 6 58 28
64 l25 7 -27 1 c-23 1 -28 6 -28 26 0 14 -4 25 -10 25 -5 0 -10 -11 -10 -25z"/>
<path d="M6160 346 c0 -15 -7 -26 -17 -29 -17 -4 -17 -5 0 -6 14 -1 17 -11 17
-64 0 -68 10 -87 47 -87 30 0 30 18 1 22 -21 3 -23 8 -23 63 0 55 2 60 25 66
l25 7 -27 1 c-23 1 -28 6 -28 26 0 14 -4 25 -10 25 -5 0 -10 -11 -10 -24z"/>
<path d="M2970 323 c-27 -10 -40 -36 -40 -84 0 -30 6 -53 16 -63 17 -18 104
-23 104 -6 0 6 -17 10 -38 10 -39 0 -62 14 -62 36 0 8 18 14 48 16 47 3 47 3
50 41 3 32 0 38 -23 47 -29 11 -33 11 -55 3z m44 -19 c9 -3 16 -17 16 -30 0
-21 -4 -24 -40 -24 -33 0 -40 3 -40 20 0 10 8 24 18 29 20 12 25 13 46 5z"/>
<path d="M3363 323 c-37 -7 -26 -22 12 -16 36 6 65 -9 65 -33 0 -8 -16 -14
-46 -16 -56 -4 -73 -23 -58 -65 11 -34 45 -41 80 -19 21 15 24 15 24 1 0 -8 5
-15 11 -15 11 0 10 143 -2 154 -9 9 -62 14 -86 9z m77 -99 c0 -36 -72 -60 -84
-29 -11 29 5 45 45 45 29 0 39 -4 39 -16z"/>
<path d="M3800 317 c-22 -11 -25 -20 -28 -69 -4 -70 11 -88 74 -88 24 0 44 5
44 10 0 6 -17 10 -38 10 -39 0 -62 14 -62 36 0 8 18 14 48 16 47 3 47 3 50 41
3 32 0 38 -23 47 -33 13 -35 12 -65 -3z m54 -13 c9 -3 16 -17 16 -30 0 -21 -4
-24 -40 -24 -32 0 -40 4 -40 18 0 34 29 50 64 36z"/>
<path d="M4005 323 c-30 -7 -45 -32 -45 -78 0 -56 22 -85 65 -85 47 0 65 22
65 79 0 67 -30 96 -85 84z m53 -25 c16 -16 16 -90 0 -106 -15 -15 -51 -15 -66
0 -17 17 -15 84 4 102 18 19 45 21 62 4z"/>
<path d="M4221 314 c-28 -12 -36 -12 -43 -2 -4 7 -8 -24 -8 -69 0 -49 4 -83
10 -83 6 0 10 28 10 65 0 64 0 66 29 71 17 4 32 12 35 20 3 8 4 14 3 14 -1 -1
-17 -7 -36 -16z"/>
<path d="M4448 323 c-16 -2 -28 -9 -28 -14 0 -5 11 -7 25 -3 38 10 75 -3 75
-26 0 -17 -7 -20 -45 -20 -38 0 -47 -4 -56 -23 -15 -33 4 -77 34 -77 12 0 33
7 45 16 20 14 22 14 22 0 0 -9 5 -16 10 -16 12 0 14 129 2 147 -9 14 -48 22
-84 16z m72 -99 c0 -37 -73 -61 -82 -26 -8 31 3 42 43 42 29 0 39 -4 39 -16z"/>
<path d="M4735 320 c-34 -9 -28 -11 30 -13 33 -2 41 -6 43 -24 3 -20 -1 -23
-35 -23 -52 0 -65 -11 -61 -50 4 -46 30 -60 68 -38 28 16 30 16 40 0 7 -12 9
4 10 60 0 66 -3 79 -19 88 -22 11 -32 11 -76 0z m75 -100 c0 -23 -40 -46 -64
-37 -9 4 -16 18 -16 32 0 23 4 25 40 25 33 0 40 -3 40 -20z"/>
<path d="M5153 323 c-38 -7 -26 -18 19 -18 37 0 43 -3 46 -22 3 -21 -1 -23
-35 -23 -46 0 -63 -14 -63 -51 0 -41 24 -55 67 -40 29 11 37 11 44 0 5 -9 9
16 9 63 0 66 -3 79 -19 88 -20 10 -29 11 -68 3z m67 -103 c0 -34 -65 -55 -76
-25 -11 28 4 45 41 45 28 0 35 -4 35 -20z"/>
<path d="M5472 315 c-17 -8 -32 -10 -32 -5 0 6 -4 10 -10 10 -6 0 -10 -45 -10
-115 0 -70 4 -115 10 -115 6 0 10 18 10 39 l0 39 38 -4 c49 -6 62 5 69 54 11
84 -17 121 -75 97z m48 -24 c15 -28 12 -87 -4 -100 -8 -7 -27 -11 -43 -9 -26
3 -28 6 -28 53 0 43 3 51 25 62 33 17 38 16 50 -6z"/>
<path d="M5676 315 c-24 -13 -31 -13 -38 -3 -4 7 -8 -23 -8 -69 0 -49 4 -83
10 -83 6 0 10 28 10 65 0 65 0 66 30 72 17 3 30 12 30 19 0 17 1 17 -34 -1z"/>
<path d="M5803 323 c-38 -7 -26 -18 19 -18 37 0 43 -3 46 -22 3 -21 -1 -23
-36 -23 -46 0 -65 -18 -60 -56 5 -41 30 -52 72 -32 33 16 35 16 39 0 3 -9 5
18 6 60 1 67 -2 79 -18 88 -20 10 -29 11 -68 3z m67 -103 c0 -34 -65 -55 -76
-25 -11 28 4 45 41 45 28 0 35 -4 35 -20z"/>
<path d="M6000 317 c-22 -11 -25 -20 -28 -69 -2 -41 1 -60 13 -72 18 -18 95
-23 95 -6 0 6 -15 10 -33 10 -44 0 -57 15 -57 67 0 47 17 63 67 63 22 0 25 2
13 10 -20 13 -40 12 -70 -3z"/>
<path d="M6433 320 c-12 -5 -27 -19 -33 -31 -14 -25 -8 -93 10 -114 14 -17
100 -21 100 -5 0 6 -15 10 -32 10 -45 0 -58 11 -64 52 -7 43 21 78 64 78 21 0
24 2 12 10 -18 12 -28 12 -57 0z"/>
<path d="M6603 323 c-38 -7 -26 -18 19 -18 37 0 43 -3 46 -22 3 -21 -1 -23
-35 -23 -46 0 -63 -14 -63 -51 0 -41 24 -55 67 -40 29 11 37 11 44 0 5 -9 9
16 9 63 0 66 -3 79 -19 88 -20 10 -29 11 -68 3z m67 -103 c0 -34 -65 -55 -76
-25 -11 28 4 45 41 45 28 0 35 -4 35 -20z"/>
<path d="M4320 240 c0 -47 4 -80 10 -80 6 0 10 33 10 80 0 47 -4 80 -10 80 -6
0 -10 -33 -10 -80z"/>
<path d="M6300 240 c0 -47 4 -80 10 -80 6 0 10 33 10 80 0 47 -4 80 -10 80 -6
0 -10 -33 -10 -80z"/>
</g>
</svg>
