<svg width="24" height="24" viewBox="0 0 24 24" fill="none" xmlns="http://www.w3.org/2000/svg">
  <path d="M9 12C9 13 8 14 7 14C6 14 5 13 5 12C5 11 6 10 7 10C8 10 9 11 9 12ZM19 12C19 13 18 14 17 14C16 14 15 13 15 12C15 11 16 10 17 10C18 10 19 11 19 12ZM12 15C13 15 14 16 14 17C14 18 13 19 12 19C11 19 10 18 10 17C10 16 11 15 12 15ZM12 5C13 5 14 6 14 7C14 8 13 9 12 9C11 9 10 8 10 7C10 6 11 5 12 5Z" stroke="currentColor" stroke-width="2"/>
  <path d="M15 16C15 17 14 18 12 18C10 18 9 17 9 16" stroke="currentColor" stroke-width="2" stroke-linecap="round"/>
</svg>